<?xml version="1.0" encoding="UTF-8" standalone="no"?>
<!DOCTYPE svg PUBLIC "-//W3C//DTD SVG 1.1//EN" "http://www.w3.org/Graphics/SVG/1.1/DTD/svg11.dtd">
<svg xmlns="http://www.w3.org/2000/svg" version="1.1" viewBox="0 0 1024 1024" width="1024.0pt" height="1024.0pt">
<path d="M 0.00 0.00 L 1024.00 0.00 L 1024.00 1024.00 L 0.00 1024.00 L 0.00 0.00 Z" fill="#ffffff" />
<path d="M 449.62 153.37 C 452.21 154.94 453.14 158.10 452.98 161.00 C 452.95 175.68 453.08 190.36 452.93 205.05 C 483.27 205.18 513.65 205.06 544.00 205.10 C 548.03 205.24 551.69 204.34 555.19 206.80 C 558.05 208.83 559.21 211.52 559.09 215.00 C 559.23 231.33 559.18 247.67 559.15 264.01 C 559.09 266.69 559.08 269.10 557.27 271.26 C 554.81 274.15 551.57 274.42 548.00 274.39 C 518.49 274.36 488.41 274.45 458.98 274.27 C 454.53 274.43 451.84 276.49 451.06 280.94 C 450.84 293.95 451.13 307.01 450.94 320.03 C 451.04 322.68 448.84 325.93 445.94 325.76 C 443.03 325.51 440.98 323.87 438.65 322.30 C 402.02 296.86 365.32 271.85 328.79 246.23 C 326.40 244.20 324.15 242.40 324.08 238.99 C 323.82 236.34 326.13 234.50 328.02 233.06 C 333.60 228.93 339.23 224.86 344.99 220.97 C 377.06 198.85 408.50 176.62 440.63 154.66 C 443.29 152.77 446.54 152.18 449.62 153.37 Z" fill="#000000" />
<path d="M 582.83 216.17 C 625.14 244.89 668.15 274.61 710.20 303.78 C 712.32 305.29 715.79 307.17 716.26 309.95 C 717.63 313.66 714.39 317.53 711.39 319.34 C 669.18 348.67 628.00 377.75 585.53 406.54 C 582.84 408.24 580.03 408.81 577.32 406.76 C 574.89 405.10 575.25 402.60 575.06 400.00 C 575.01 381.38 574.99 362.77 575.08 344.16 C 542.06 344.49 509.02 344.18 476.00 344.20 C 472.80 344.32 469.93 343.76 467.77 341.23 C 465.60 338.30 465.71 334.47 465.64 331.00 C 465.65 319.33 465.62 307.67 465.68 296.00 C 465.67 292.94 465.88 290.34 467.99 287.97 C 469.64 285.59 473.45 285.52 476.06 285.46 C 505.69 285.43 535.40 285.45 565.03 285.54 C 567.51 285.54 570.37 284.93 572.32 283.32 C 574.47 281.45 575.16 278.78 575.06 276.01 C 574.98 257.67 575.06 239.31 575.00 220.97 C 574.70 216.85 579.19 213.85 582.83 216.17 Z" fill="#000000" />
<path d="M 896.19 436.00 C 896.00 437.52 895.85 439.02 895.41 440.50 C 891.03 455.05 887.36 469.70 883.37 484.36 C 879.35 498.14 875.60 511.99 871.71 525.81 C 870.74 529.31 868.75 532.63 869.45 536.32 C 872.80 528.83 877.48 521.82 881.83 514.87 C 884.90 509.96 888.57 505.64 892.07 501.02 C 897.22 494.67 905.57 489.48 914.00 490.07 C 918.18 490.13 922.09 492.04 924.89 495.10 C 930.20 500.45 932.02 508.70 931.98 516.00 C 932.19 527.19 928.87 537.39 924.62 547.59 C 920.53 556.55 915.49 565.55 908.87 572.90 C 900.22 583.49 887.64 592.42 874.02 594.90 C 867.62 595.43 860.25 595.50 854.31 592.76 C 851.46 591.58 849.28 588.83 847.79 586.21 C 844.98 580.44 844.57 574.32 845.04 567.99 C 846.30 558.18 848.45 548.55 851.03 539.01 C 857.58 512.61 864.70 486.33 870.64 459.78 C 871.24 456.38 872.25 451.24 869.40 448.58 C 867.55 446.07 863.67 446.14 860.86 445.13 C 861.38 444.01 861.67 442.56 862.54 441.65 C 867.53 439.35 874.16 440.62 878.81 439.55 C 884.48 437.73 890.30 436.76 896.19 436.00 Z" fill="#000000" />
<path d="M 90.98 454.10 C 104.66 454.13 118.33 454.20 132.00 454.14 C 134.14 454.08 135.96 454.52 137.95 455.25 C 137.42 456.30 136.90 457.35 136.38 458.40 C 132.62 459.61 127.21 460.44 124.72 463.76 C 122.69 466.14 122.93 469.06 122.79 472.00 C 122.81 479.38 123.25 486.80 123.85 494.15 C 124.12 507.16 125.87 520.16 126.17 533.16 C 127.05 540.09 127.03 547.04 127.90 553.97 C 128.29 556.26 127.52 559.72 128.98 561.58 C 137.31 545.99 145.46 530.22 153.47 514.47 C 156.98 507.32 161.00 500.45 164.20 493.18 C 168.42 484.74 172.76 476.37 176.82 467.85 C 178.25 464.98 179.62 461.90 181.53 459.31 C 183.91 457.66 186.33 458.23 188.81 459.26 C 189.00 462.86 189.17 466.44 189.75 470.00 C 191.07 481.32 192.18 492.68 193.32 504.01 C 195.48 522.63 196.73 541.41 199.10 560.00 C 209.80 539.99 220.39 520.01 230.83 499.86 C 235.23 490.99 240.36 482.22 244.01 472.99 C 245.08 470.41 245.61 467.04 244.60 464.40 C 242.62 460.39 236.96 460.02 233.08 458.81 C 231.02 458.61 231.61 456.58 231.14 455.09 C 233.33 453.70 235.54 454.16 238.00 454.09 C 248.67 454.19 259.36 453.98 270.02 454.19 C 271.68 454.08 272.71 454.92 274.06 455.70 L 273.32 458.18 C 269.14 460.16 264.82 460.88 261.37 464.36 C 257.45 468.48 254.74 473.95 251.80 478.79 C 245.14 490.75 238.13 502.51 231.52 514.50 C 221.91 532.19 212.10 549.87 202.50 567.53 C 199.34 572.85 197.00 578.59 193.83 583.85 C 191.84 587.18 190.48 591.08 188.11 594.14 C 186.74 595.56 182.56 596.59 181.31 594.69 C 180.21 589.97 180.17 584.79 179.48 580.00 C 178.07 563.40 176.42 546.09 174.88 529.48 C 173.73 518.59 173.15 507.61 171.25 496.83 C 170.64 497.37 170.13 497.98 169.71 498.64 C 154.19 529.88 137.21 560.28 121.37 591.38 C 119.70 595.39 115.87 596.01 111.99 595.27 C 111.20 594.62 110.66 593.71 110.39 592.51 C 107.10 559.44 104.84 526.95 101.50 493.99 C 100.31 484.79 100.22 475.06 97.91 466.09 C 96.12 460.69 91.29 460.27 86.71 458.39 C 86.73 457.27 86.76 456.16 86.80 455.05 C 88.23 454.37 89.38 454.03 90.98 454.10 Z" fill="#000000" />
<path d="M 616.00 454.05 C 631.65 454.23 647.30 453.94 662.95 454.19 C 662.94 455.98 663.04 457.34 661.86 458.81 C 656.81 459.29 650.99 460.38 648.14 465.08 C 644.17 472.23 642.74 481.31 640.55 489.18 C 638.38 498.82 635.51 508.36 633.77 518.08 C 651.87 518.08 669.98 518.20 688.08 518.12 C 688.70 517.40 689.24 516.63 689.70 515.82 C 691.48 509.95 692.67 503.97 694.15 498.02 C 695.94 490.32 698.27 482.78 699.81 475.01 C 700.59 471.45 702.05 466.51 699.85 463.23 C 697.18 459.85 691.11 459.86 687.24 458.37 C 687.42 457.19 687.58 456.00 687.72 454.82 C 690.35 453.74 693.11 454.16 696.00 454.07 C 710.25 454.18 724.51 454.02 738.76 454.22 C 738.93 455.77 739.61 457.82 737.81 458.66 C 735.63 459.18 733.47 459.45 731.35 460.29 C 727.93 461.48 725.26 464.69 723.99 468.01 C 721.28 474.89 719.87 481.89 718.03 489.00 C 711.89 514.71 705.48 540.36 699.17 566.03 C 698.09 570.73 696.84 575.25 696.53 580.10 C 696.42 582.37 697.53 584.33 699.51 585.41 C 702.40 586.81 705.58 587.31 708.39 588.93 C 707.93 590.25 707.46 591.56 706.97 592.87 C 690.17 592.85 673.37 592.82 656.57 592.87 C 656.67 591.20 656.26 589.83 657.47 588.47 C 659.86 587.23 662.77 587.15 665.34 586.35 C 669.36 585.34 672.65 581.78 673.94 577.93 C 676.49 571.15 677.75 563.82 679.63 556.82 C 682.01 546.20 684.71 535.66 687.29 525.09 C 668.94 524.97 650.60 525.07 632.26 525.02 C 630.35 530.04 629.59 535.04 628.31 540.24 C 625.32 551.48 623.08 562.90 620.32 574.20 C 619.80 576.80 618.99 581.00 620.73 583.25 C 623.97 587.25 629.56 586.55 633.93 588.42 C 633.51 589.84 633.08 591.27 632.64 592.69 C 615.03 593.10 597.34 592.61 579.71 592.82 C 580.08 591.07 579.73 589.36 581.30 588.23 C 584.43 586.91 587.41 587.07 590.27 585.26 C 592.87 583.75 595.05 582.04 596.18 579.15 C 599.30 571.76 600.55 563.26 602.57 555.48 C 609.26 527.98 616.29 500.56 622.77 473.00 C 623.55 470.08 624.01 466.14 622.68 463.33 C 620.66 459.71 614.81 458.97 611.11 458.65 C 611.07 457.53 611.12 456.42 611.24 455.32 C 612.32 453.42 614.15 454.27 616.00 454.05 Z" fill="#000000" />
<path d="M 314.02 490.14 C 322.02 490.98 329.54 497.49 329.08 506.00 C 329.27 512.86 326.27 518.86 321.90 523.95 C 318.83 528.31 314.69 531.32 310.43 534.42 C 298.42 541.98 285.63 546.20 272.09 550.09 C 270.78 556.59 270.38 563.42 271.26 570.00 C 272.21 574.27 274.00 579.65 277.77 582.24 C 281.04 584.12 285.02 585.04 288.78 584.58 C 296.60 582.85 303.81 578.03 309.24 572.24 C 312.08 569.57 314.16 566.28 317.03 563.63 C 318.19 564.44 319.70 565.22 318.88 566.91 C 316.91 571.17 313.63 575.01 310.28 578.28 C 303.81 584.99 295.60 591.14 286.53 593.70 C 281.57 595.61 276.21 595.22 270.97 594.94 C 260.91 593.85 252.87 585.80 250.77 576.06 C 248.24 564.52 250.63 551.54 254.51 540.52 C 260.50 523.68 271.69 507.55 286.94 497.88 C 294.77 492.21 304.36 489.42 314.02 490.14 Z" fill="#000000" />
<path d="M 402.33 491.67 C 405.41 493.06 407.63 496.46 410.04 498.83 C 415.72 494.42 422.85 490.90 430.03 490.01 C 423.43 516.19 414.99 541.92 407.92 567.99 C 407.07 571.97 405.46 575.96 405.07 580.01 C 404.87 581.79 405.90 582.56 406.93 583.80 C 415.31 582.19 421.42 573.65 427.26 567.85 C 428.08 568.76 429.53 569.38 428.71 570.83 C 426.66 575.30 423.04 579.16 419.85 582.86 C 415.11 587.81 408.86 593.51 402.02 595.03 C 398.57 595.23 393.35 595.95 390.63 593.37 C 387.82 591.24 386.92 587.35 387.04 584.00 C 387.47 576.67 389.91 569.86 391.97 562.88 C 389.79 564.32 388.79 567.17 387.28 569.34 C 380.69 579.39 372.93 588.94 361.53 593.70 C 357.79 595.59 354.04 595.28 349.97 595.12 C 344.10 594.40 339.31 590.32 337.11 584.90 C 332.15 574.60 334.30 561.37 336.54 550.56 C 342.24 530.99 353.83 511.61 370.43 499.42 C 375.51 495.64 380.79 492.50 387.01 491.03 C 391.91 489.77 397.69 489.25 402.33 491.67 Z" fill="#000000" />
<path d="M 477.50 490.67 C 482.23 489.28 487.81 491.76 489.53 496.49 C 491.39 500.56 489.79 505.79 488.96 509.99 C 486.00 521.83 482.53 533.51 479.05 545.20 C 480.01 544.14 480.93 543.08 481.56 541.79 C 484.69 535.25 487.97 528.78 491.39 522.39 C 495.81 514.55 500.16 505.90 505.86 498.89 C 509.84 493.92 515.55 490.37 522.01 490.06 C 528.69 490.98 533.48 497.31 532.37 504.03 C 531.77 510.85 525.61 515.46 518.97 515.12 C 514.23 515.20 511.81 510.79 509.07 507.68 C 502.75 512.51 499.59 518.85 495.28 525.30 C 487.58 538.57 480.76 552.27 475.71 566.79 C 472.44 575.29 470.45 584.42 466.59 592.67 C 460.55 592.83 454.44 592.93 448.40 592.76 C 450.21 584.14 452.97 575.71 455.13 567.16 C 459.95 549.05 465.21 531.09 470.16 513.03 C 471.00 509.96 471.37 507.11 469.70 504.25 C 463.78 502.97 459.58 508.18 455.47 511.51 C 452.36 513.89 451.70 518.22 446.97 517.09 C 446.88 514.28 449.23 511.93 450.65 509.61 C 457.18 500.73 466.28 492.53 477.50 490.67 Z" fill="#000000" />
<path d="M 767.01 490.48 C 773.53 489.33 780.16 495.28 778.90 502.02 C 777.30 510.70 774.17 519.29 771.70 527.77 C 768.23 538.72 765.04 549.75 761.68 560.74 C 760.01 565.69 758.61 570.82 757.91 575.99 C 757.58 578.69 757.97 580.67 759.15 583.08 C 761.02 583.00 762.68 583.34 764.36 582.37 C 769.85 579.59 773.50 575.01 777.32 570.34 C 786.59 558.97 793.92 546.31 799.97 532.98 C 805.37 520.28 808.53 506.99 812.97 493.98 C 818.61 491.05 825.16 492.37 831.28 490.15 C 831.87 491.10 832.04 491.99 831.81 492.84 C 824.57 519.04 816.64 545.03 809.27 571.19 C 808.34 574.74 807.33 578.57 807.50 582.25 C 808.26 582.87 809.02 583.48 809.81 584.07 C 814.60 582.07 818.48 578.75 821.92 574.94 C 824.28 572.55 826.11 570.07 828.99 568.29 C 829.96 569.94 830.58 571.58 829.23 573.23 C 823.85 581.12 816.84 588.76 808.38 593.39 C 804.99 595.34 800.77 595.40 796.96 595.17 C 794.48 595.03 792.17 593.11 790.80 591.15 C 788.63 587.48 788.77 583.10 789.35 579.02 C 791.39 569.30 794.54 559.75 796.96 550.12 C 793.30 554.60 791.31 560.19 787.98 565.00 C 781.64 574.48 774.57 584.61 764.77 590.78 C 761.50 592.84 758.00 595.06 754.01 595.15 C 749.78 595.31 745.70 595.53 742.16 592.82 C 739.08 590.46 738.63 586.63 738.31 583.02 C 739.14 572.25 743.22 563.31 745.91 552.99 C 749.84 539.63 753.96 526.28 757.60 512.84 C 758.17 510.29 759.00 505.36 755.93 504.07 C 751.56 503.49 746.92 508.16 743.80 510.80 C 740.92 512.96 738.95 517.79 734.97 517.11 C 734.89 516.07 734.96 515.08 735.20 514.12 C 737.88 509.91 740.92 505.98 744.40 502.39 C 750.95 496.46 758.00 491.57 767.01 490.48 Z" fill="#000000" />
<path d="M 393.97 496.06 C 397.39 495.89 400.99 495.72 403.24 498.78 C 405.97 503.26 406.40 508.42 405.30 513.49 C 404.06 518.99 402.68 524.52 400.84 529.85 C 398.95 536.35 396.89 542.67 393.70 548.67 C 389.00 557.82 384.13 566.52 377.24 574.24 C 373.95 577.71 370.58 581.25 365.92 582.82 C 363.57 583.46 360.91 583.68 358.81 582.22 C 356.18 580.49 354.86 576.93 354.12 574.01 C 353.04 564.20 354.94 554.97 357.56 545.57 C 361.85 531.61 367.97 518.56 377.16 507.14 C 381.95 501.88 386.62 497.21 393.97 496.06 Z" fill="#ffffff" />
<path d="M 308.59 498.41 C 311.16 499.78 311.63 502.32 312.02 504.96 C 312.64 510.59 310.05 516.64 307.62 521.60 C 299.72 533.23 286.84 539.64 273.70 543.52 C 274.01 538.44 276.17 533.50 277.68 528.67 C 281.58 518.67 286.65 507.06 295.47 500.47 C 299.12 498.13 304.54 495.62 308.59 498.41 Z" fill="#ffffff" />
<path d="M 902.98 504.07 C 905.79 504.26 908.46 505.65 909.79 508.21 C 911.93 512.26 912.18 517.51 911.83 521.99 C 910.47 536.59 904.83 551.02 897.80 563.77 C 893.61 571.06 888.99 578.08 882.62 583.66 C 879.42 586.34 875.25 588.81 871.01 589.14 C 866.83 589.46 863.02 586.08 862.41 581.99 C 861.37 575.31 862.51 568.15 864.78 561.82 C 867.23 554.22 869.98 546.76 873.68 539.67 C 878.88 528.67 885.35 516.74 894.63 508.66 C 896.96 506.38 899.77 504.73 902.98 504.07 Z" fill="#ffffff" />
<path d="M 235.81 677.16 C 237.96 677.18 240.10 677.17 242.24 677.12 C 242.46 684.35 242.58 691.77 242.19 698.99 C 244.28 696.61 245.75 693.90 248.89 692.87 C 253.44 691.14 259.61 691.22 263.62 694.28 C 273.01 700.98 273.91 717.45 264.91 724.88 C 260.76 728.84 253.66 729.25 248.46 727.53 C 245.75 726.67 244.59 724.56 242.48 722.76 C 242.53 724.39 242.57 726.02 242.60 727.65 C 240.30 727.86 237.99 727.96 235.68 728.00 C 235.77 711.06 235.69 694.09 235.81 677.16 Z" fill="#000000" />
<path d="M 368.27 678.21 C 370.22 678.05 372.71 677.69 374.53 678.47 C 375.57 680.53 375.05 683.55 374.79 685.77 C 372.49 685.88 370.19 685.90 367.89 685.91 C 367.25 683.29 367.03 680.70 368.27 678.21 Z" fill="#000000" />
<path d="M 871.68 681.38 C 872.10 685.16 871.79 688.92 872.05 692.71 C 875.35 692.66 878.63 692.46 881.93 692.66 C 881.85 694.55 881.79 696.43 881.70 698.31 C 878.42 698.12 875.14 698.01 871.85 698.26 C 871.89 704.51 871.87 710.76 871.94 717.01 C 871.87 718.98 872.48 720.83 874.01 722.12 C 876.29 723.43 879.67 722.38 882.19 722.19 C 882.05 724.11 881.93 726.03 881.83 727.96 C 877.78 728.36 874.14 728.97 870.12 727.82 C 867.08 726.54 865.12 723.29 865.12 720.02 C 864.91 712.74 865.33 705.44 864.94 698.16 C 862.77 698.17 860.61 698.21 858.44 698.29 C 858.44 696.37 858.44 694.46 858.46 692.55 C 860.67 692.62 862.88 692.67 865.09 692.69 C 865.08 689.29 864.94 685.89 865.06 682.48 C 867.50 682.53 869.42 682.29 871.68 681.38 Z" fill="#000000" />
<path d="M 101.49 692.61 C 108.40 690.80 115.75 691.88 120.72 697.32 C 126.74 703.92 127.04 715.40 121.19 722.17 C 115.00 730.05 101.29 730.96 94.35 723.62 C 91.57 720.68 90.04 716.97 89.42 713.01 C 88.01 704.40 92.97 695.22 101.49 692.61 Z" fill="#000000" />
<path d="M 203.95 692.05 C 204.10 694.33 204.18 696.61 204.20 698.89 C 201.05 698.91 198.21 698.66 195.42 700.41 C 192.30 702.07 191.46 705.74 191.10 708.97 C 191.16 715.31 191.19 721.63 191.23 727.97 C 188.88 727.99 186.55 727.96 184.21 727.84 C 184.25 716.14 184.28 704.46 184.03 692.76 C 186.37 692.66 188.70 692.66 191.03 692.79 C 190.89 694.64 190.73 696.48 190.59 698.33 C 192.47 696.46 193.64 694.32 196.14 693.14 C 198.65 691.54 201.15 691.94 203.95 692.05 Z" fill="#000000" />
<path d="M 344.02 691.94 C 349.06 692.18 353.44 695.60 354.23 700.71 C 352.26 701.05 350.30 701.43 348.34 701.84 C 347.06 699.83 346.12 697.82 343.51 697.37 C 339.84 696.40 335.03 697.58 334.26 701.83 C 334.78 704.52 337.26 705.76 339.68 706.38 C 343.76 707.62 348.35 707.48 351.61 710.35 C 356.03 713.86 356.04 721.13 351.82 724.82 C 346.93 729.10 339.73 729.36 333.82 727.30 C 329.96 725.75 327.64 722.54 326.21 718.75 C 328.23 718.03 330.26 717.39 332.40 717.12 C 333.81 719.36 334.79 721.63 337.49 722.52 C 340.57 723.60 344.66 723.56 347.14 721.15 C 348.50 720.10 348.34 717.76 347.79 716.33 C 345.77 713.69 341.71 713.12 338.69 712.39 C 335.16 711.63 331.93 710.27 329.44 707.58 C 326.83 703.83 327.46 698.84 330.65 695.64 C 334.28 691.78 339.07 691.72 344.02 691.94 Z" fill="#000000" />
<path d="M 417.59 694.34 C 420.81 696.95 422.01 702.03 421.97 706.00 C 421.98 713.32 421.95 720.65 421.99 727.98 C 419.68 727.97 417.38 727.96 415.07 727.96 C 414.90 720.31 415.25 712.62 414.94 704.98 C 414.61 700.84 411.24 697.56 406.99 697.91 C 401.66 697.98 397.63 702.83 397.75 708.00 C 397.65 714.62 397.62 721.30 397.82 727.92 C 395.42 727.95 393.02 727.95 390.62 727.93 C 390.77 716.16 390.74 704.38 390.61 692.61 C 392.88 692.67 395.13 692.63 397.40 692.49 C 398.05 694.29 397.40 696.05 397.18 697.90 C 398.82 697.67 398.78 696.62 399.46 695.36 C 404.41 691.01 412.24 690.44 417.59 694.34 Z" fill="#000000" />
<path d="M 451.00 691.88 C 456.06 691.48 460.86 692.85 464.29 696.72 C 468.08 701.17 468.37 706.39 468.37 711.98 C 459.56 711.96 450.74 711.87 441.93 711.97 C 442.62 714.76 443.09 717.68 445.20 719.80 C 448.06 723.19 453.04 723.75 456.97 722.11 C 459.13 721.23 460.54 719.24 462.07 717.57 C 463.96 718.14 465.75 718.82 467.53 719.70 C 465.96 722.44 464.31 724.93 461.46 726.47 C 457.77 728.77 453.15 728.60 448.98 728.22 C 445.02 727.98 441.77 725.73 439.08 722.98 C 435.35 718.46 434.40 712.67 435.04 706.97 C 436.29 699.13 442.61 691.80 451.00 691.88 Z" fill="#000000" />
<path d="M 492.97 692.01 C 496.94 691.70 500.63 691.59 504.01 694.02 C 505.97 695.34 508.68 698.02 507.78 700.60 C 505.89 701.01 503.96 701.27 502.06 701.64 C 500.57 699.30 498.98 697.24 496.03 696.92 C 493.65 696.72 490.18 697.76 489.06 700.07 C 488.12 702.24 489.23 704.71 491.42 705.58 C 496.27 707.40 502.13 707.17 506.18 710.80 C 509.66 713.85 509.55 719.46 507.19 723.16 C 505.07 726.02 501.57 727.94 498.02 728.23 C 493.10 728.83 487.87 728.42 483.96 725.04 C 482.10 723.11 480.44 721.14 480.82 718.26 C 482.63 717.95 484.44 717.59 486.25 717.25 C 487.21 718.70 488.17 720.33 489.43 721.54 C 491.76 723.41 495.12 723.43 497.90 722.81 C 500.50 722.17 502.68 719.87 502.06 717.05 C 500.88 714.55 498.04 714.15 495.71 713.21 C 492.33 711.95 489.17 711.89 486.09 709.90 C 482.04 707.55 480.79 702.08 483.02 698.04 C 484.97 694.20 488.92 692.58 492.97 692.01 Z" fill="#000000" />
<path d="M 542.64 694.33 C 544.82 695.89 545.70 698.08 546.93 700.36 C 544.82 700.89 542.69 701.34 540.56 701.81 C 539.45 700.07 538.52 698.47 536.56 697.56 C 533.61 696.65 530.35 696.73 528.11 699.10 C 526.06 700.90 526.64 703.84 528.91 705.15 C 533.31 707.49 539.64 707.00 543.65 710.27 C 547.46 712.85 547.94 718.18 546.12 722.06 C 544.27 725.70 539.97 727.92 536.03 728.34 C 532.17 728.59 527.93 728.54 524.51 726.51 C 521.57 724.72 519.06 722.11 519.01 718.46 C 520.76 718.07 522.46 717.59 524.14 716.98 C 525.92 719.24 527.29 721.87 530.20 722.76 C 533.10 723.51 536.83 723.20 539.22 721.22 C 540.70 719.89 540.45 718.00 539.89 716.28 C 535.07 711.37 526.82 713.61 522.19 707.83 C 518.05 702.68 521.01 694.97 527.03 692.96 C 531.87 691.41 538.37 691.14 542.64 694.33 Z" fill="#000000" />
<path d="M 606.29 693.72 C 609.69 695.47 612.71 698.88 613.24 702.77 C 611.35 702.94 608.74 704.21 607.00 703.32 C 605.60 701.79 604.79 700.14 602.91 699.11 C 598.97 696.63 594.07 697.80 590.77 700.77 C 585.60 706.47 586.36 716.75 592.72 721.28 C 595.52 723.11 598.86 723.25 601.89 721.87 C 604.42 720.98 605.60 719.05 607.42 717.28 C 609.18 716.75 611.80 718.15 613.54 718.63 C 611.45 721.98 609.60 725.09 605.88 726.85 C 601.48 729.16 596.82 728.83 592.12 727.81 C 586.14 725.83 581.73 720.70 580.61 714.51 C 578.45 705.78 583.25 695.85 591.80 692.76 C 596.38 691.38 602.04 691.28 606.29 693.72 Z" fill="#000000" />
<path d="M 636.45 692.45 C 641.80 691.10 648.50 691.47 653.01 695.00 C 662.47 701.31 662.83 717.07 654.33 724.32 C 649.18 729.07 641.05 729.55 634.69 727.35 C 626.56 723.91 622.62 714.53 624.29 706.14 C 625.62 699.65 630.16 694.52 636.45 692.45 Z" fill="#000000" />
<path d="M 689.97 691.98 C 694.10 691.63 698.15 691.63 701.33 694.67 C 704.75 697.61 705.42 701.69 705.56 705.98 C 705.64 713.29 705.44 720.59 705.71 727.90 C 703.40 727.95 701.09 727.98 698.77 727.98 C 698.72 720.98 698.77 713.97 698.74 706.97 C 698.58 703.75 697.67 699.99 694.40 698.60 C 688.63 695.81 681.35 700.65 681.14 706.97 C 680.84 713.93 680.85 721.00 681.08 727.96 C 678.74 727.98 676.39 727.98 674.04 727.96 C 674.08 716.21 673.97 704.46 674.05 692.71 C 676.38 692.67 678.72 692.64 681.05 692.64 C 681.05 694.42 681.02 696.21 680.99 697.99 C 683.25 694.89 686.03 692.47 689.97 691.98 Z" fill="#000000" />
<path d="M 736.18 692.24 C 740.56 691.29 745.75 691.59 749.16 694.85 C 752.04 697.90 752.77 701.94 752.92 706.00 C 752.97 713.32 752.86 720.64 752.96 727.96 C 750.62 727.98 748.28 727.98 745.94 727.95 C 745.95 720.97 745.97 713.98 745.90 706.99 C 745.77 703.97 745.36 701.08 742.73 699.18 C 737.26 695.42 728.32 700.43 728.65 707.01 C 728.35 714.02 728.48 721.05 728.47 728.06 C 726.21 728.04 723.95 728.03 721.68 728.02 C 721.54 716.23 721.90 704.41 721.31 692.64 C 723.68 692.63 726.06 692.58 728.44 692.51 C 728.46 694.30 728.40 696.08 728.31 697.86 C 730.88 695.62 732.70 693.18 736.18 692.24 Z" fill="#000000" />
<path d="M 784.98 691.85 C 789.20 691.78 793.25 693.87 795.79 697.21 C 798.88 701.52 800.11 706.65 799.88 711.92 C 790.90 712.05 781.92 711.88 772.94 711.93 C 773.76 715.04 774.33 717.88 776.91 720.07 C 781.61 724.67 788.96 723.57 792.57 718.19 C 794.75 718.43 796.85 718.79 798.83 719.78 C 797.22 722.23 795.50 724.44 793.07 726.13 C 785.60 730.44 775.32 728.95 769.82 722.15 C 764.31 714.51 764.95 703.38 771.66 696.66 C 775.04 692.70 779.99 691.68 784.98 691.85 Z" fill="#000000" />
<path d="M 835.96 692.18 C 841.09 693.27 845.15 697.81 847.07 702.51 C 845.00 703.09 843.00 703.65 840.84 703.73 C 839.03 702.84 838.44 700.41 836.63 699.37 C 834.05 697.39 830.37 697.35 827.45 698.46 C 819.04 701.99 817.88 715.59 825.27 720.78 C 830.53 724.68 837.64 722.22 840.79 716.84 C 842.79 717.91 844.85 717.87 847.05 718.05 C 845.60 722.03 842.24 725.80 838.19 727.23 C 833.21 729.16 827.27 728.89 822.49 726.51 C 818.37 724.10 814.63 719.87 813.75 715.07 C 811.75 707.80 814.92 699.36 820.89 694.84 C 825.30 691.70 830.76 691.35 835.96 692.18 Z" fill="#000000" />
<path d="M 906.31 692.36 C 911.51 691.28 916.90 691.51 921.40 694.60 C 929.04 699.14 931.09 709.21 928.39 717.22 C 925.66 724.65 917.83 729.27 909.99 728.46 C 902.15 728.46 894.98 721.80 893.68 714.20 C 891.51 705.20 896.97 694.50 906.31 692.36 Z" fill="#000000" />
<path d="M 963.80 692.05 C 963.87 694.31 963.90 696.57 963.93 698.83 C 961.58 698.85 958.76 698.57 956.61 699.60 C 953.33 700.91 950.85 704.44 950.81 707.98 C 950.58 714.61 950.57 721.26 950.64 727.89 C 948.35 727.98 946.05 727.99 943.75 727.96 C 943.79 716.19 943.75 704.42 943.72 692.65 C 945.94 692.63 948.15 692.57 950.37 692.46 C 950.56 694.61 950.35 696.71 950.26 698.85 C 952.30 696.42 953.73 694.00 956.85 692.80 C 959.08 691.70 961.34 692.11 963.80 692.05 Z" fill="#000000" />
<path d="M 46.78 692.69 C 49.24 692.71 51.68 692.65 54.13 692.41 C 55.67 695.00 56.27 697.84 57.40 700.59 C 59.35 705.37 61.24 710.17 62.86 715.07 C 63.24 716.28 63.82 717.35 64.53 718.40 C 67.73 709.81 70.75 701.14 74.01 692.58 C 76.48 692.54 78.96 692.52 81.43 692.62 C 79.95 696.96 77.97 701.10 76.38 705.40 C 72.02 716.95 66.78 727.97 62.54 739.56 C 61.60 743.34 56.68 741.43 53.85 741.81 C 55.79 736.96 58.21 732.02 60.71 727.42 C 56.61 715.62 51.28 704.33 46.78 692.69 Z" fill="#000000" />
<path d="M 137.89 692.72 C 140.21 692.64 142.51 692.65 144.82 692.78 C 144.89 700.19 144.79 707.60 144.89 715.01 C 144.81 717.72 145.98 720.24 148.42 721.55 C 152.61 723.30 157.63 721.94 160.06 718.05 C 161.60 715.60 161.66 712.82 161.68 710.02 C 161.61 704.21 161.72 698.41 161.56 692.60 C 163.83 692.58 166.10 692.58 168.37 692.62 C 168.43 704.39 168.40 716.16 168.51 727.93 C 166.21 727.95 163.90 727.97 161.60 727.99 C 161.66 725.97 161.76 723.96 161.85 721.94 C 158.46 725.16 156.18 728.38 151.01 728.49 C 144.55 729.24 138.60 724.46 138.01 718.02 C 137.62 709.61 137.98 701.14 137.89 692.72 Z" fill="#000000" />
<path d="M 282.96 692.61 C 285.26 692.64 287.57 692.67 289.88 692.73 C 289.93 699.82 289.93 706.91 289.89 714.01 C 289.88 715.80 290.03 717.42 291.03 718.97 C 292.69 722.75 298.35 722.97 301.64 721.70 C 304.72 719.57 307.10 715.86 306.85 712.01 C 306.87 705.51 306.79 699.01 306.86 692.51 C 309.21 692.63 311.55 692.71 313.90 692.79 C 313.91 704.50 313.85 716.21 313.97 727.93 C 311.61 727.93 309.24 727.93 306.88 727.92 C 306.91 725.95 306.88 723.98 306.76 722.01 C 304.94 723.88 303.59 726.33 301.21 727.34 C 297.53 729.22 293.23 729.07 289.47 727.50 C 285.83 725.41 283.04 721.30 283.06 717.02 C 282.86 708.89 283.03 700.74 282.96 692.61 Z" fill="#000000" />
<path d="M 367.95 692.60 C 370.27 692.67 372.59 692.71 374.91 692.74 C 375.02 704.51 375.00 716.28 374.94 728.05 C 372.64 728.00 370.34 727.96 368.04 727.92 C 368.10 716.15 368.13 704.37 367.95 692.60 Z" fill="#000000" />
<path d="M 454.54 697.50 C 459.35 698.93 460.74 702.63 461.96 707.05 C 455.27 707.00 448.57 707.07 441.88 707.05 C 443.04 700.95 448.04 696.03 454.54 697.50 Z" fill="#ffffff" />
<path d="M 103.37 698.34 C 110.82 695.54 117.90 701.46 118.10 708.99 C 118.90 716.38 113.16 724.29 105.14 722.62 C 94.40 720.25 93.31 702.36 103.37 698.34 Z" fill="#ffffff" />
<path d="M 250.18 698.26 C 253.62 697.23 257.84 697.95 260.31 700.69 C 264.43 705.17 265.39 712.65 261.80 717.73 C 259.42 722.12 253.62 723.96 249.11 721.92 C 245.36 720.12 242.65 716.24 242.71 712.01 C 242.10 706.23 244.23 700.17 250.18 698.26 Z" fill="#ffffff" />
<path d="M 639.11 698.10 C 642.08 697.54 645.12 697.51 647.67 699.35 C 654.30 703.60 655.00 714.15 649.75 719.74 C 645.26 724.16 637.19 723.80 633.76 718.24 C 629.64 712.05 630.85 700.27 639.11 698.10 Z" fill="#ffffff" />
<path d="M 780.95 697.78 C 783.22 697.01 785.50 697.46 787.68 698.28 C 790.87 699.85 792.32 703.76 793.02 707.02 C 786.54 707.09 780.04 707.11 773.57 706.92 C 774.27 702.71 776.72 699.02 780.95 697.78 Z" fill="#ffffff" />
<path d="M 907.39 698.40 C 910.56 697.22 914.67 697.49 917.39 699.65 C 922.75 703.37 923.54 712.08 920.47 717.44 C 917.70 723.13 909.32 724.48 904.71 720.30 C 898.19 714.84 899.07 701.73 907.39 698.40 Z" fill="#ffffff" />
</svg>